<?xml version="1.0" encoding="utf-8" standalone="no"?>
<!DOCTYPE svg PUBLIC "-//W3C//DTD SVG 1.1//EN"
  "http://www.w3.org/Graphics/SVG/1.1/DTD/svg11.dtd">
<svg xmlns:xlink="http://www.w3.org/1999/xlink" width="518.740157pt" height="325.984252pt" viewBox="0 0 518.740157 325.984252" xmlns="http://www.w3.org/2000/svg" version="1.1">
 <metadata>
  <rdf:RDF xmlns:dc="http://purl.org/dc/elements/1.1/" xmlns:cc="http://creativecommons.org/ns#" xmlns:rdf="http://www.w3.org/1999/02/22-rdf-syntax-ns#">
   <cc:Work>
    <dc:type rdf:resource="http://purl.org/dc/dcmitype/StillImage"/>
    <dc:format>image/svg+xml</dc:format>
    <dc:creator>
     <cc:Agent>
      <dc:title>Matplotlib v3.10.8, https://matplotlib.org/</dc:title>
     </cc:Agent>
    </dc:creator>
   </cc:Work>
  </rdf:RDF>
 </metadata>
 <defs>
  <style type="text/css">*{stroke-linejoin: round; stroke-linecap: butt}</style>
 </defs>
 <g id="figure_1">
  <g id="patch_1">
   <path d="M 0 325.984252 
L 518.740157 325.984252 
L 518.740157 0 
L 0 0 
z
" style="fill: #ffffff"/>
  </g>
  <g id="axes_1">
   <g id="patch_2">
    <path d="M 145.247244 231.448819 
L 510.959055 231.448819 
L 510.959055 32.598425 
L 145.247244 32.598425 
z
" style="fill: #ffffff"/>
   </g>
   <g id="patch_3">
    <path d="M 145.247244 32.598425 
L 218.389606 32.598425 
L 218.389606 57.454724 
L 145.247244 57.454724 
z
" clip-path="url(#pb38b4e8037)" style="fill: #c2d8e3; stroke: #ffffff; stroke-linejoin: miter"/>
   </g>
   <g id="patch_4">
    <path d="M 218.389606 32.598425 
L 291.531969 32.598425 
L 291.531969 57.454724 
L 218.389606 57.454724 
z
" clip-path="url(#pb38b4e8037)" style="fill: #c2d8e3; stroke: #ffffff; stroke-linejoin: miter"/>
   </g>
   <g id="patch_5">
    <path d="M 291.531969 32.598425 
L 364.674331 32.598425 
L 364.674331 57.454724 
L 291.531969 57.454724 
z
" clip-path="url(#pb38b4e8037)" style="fill: #c2d8e3; stroke: #ffffff; stroke-linejoin: miter"/>
   </g>
   <g id="patch_6">
    <path d="M 364.674331 32.598425 
L 437.816693 32.598425 
L 437.816693 57.454724 
L 364.674331 57.454724 
z
" clip-path="url(#pb38b4e8037)" style="fill: #c2d8e3; stroke: #ffffff; stroke-linejoin: miter"/>
   </g>
   <g id="patch_7">
    <path d="M 437.816693 32.598425 
L 510.959055 32.598425 
L 510.959055 57.454724 
L 437.816693 57.454724 
z
" clip-path="url(#pb38b4e8037)" style="fill: #c2d8e3; stroke: #ffffff; stroke-linejoin: miter"/>
   </g>
   <g id="patch_8">
    <path d="M 145.247244 57.454724 
L 218.389606 57.454724 
L 218.389606 82.311024 
L 145.247244 82.311024 
z
" clip-path="url(#pb38b4e8037)" style="fill: #c2d8e3; stroke: #ffffff; stroke-linejoin: miter"/>
   </g>
   <g id="patch_9">
    <path d="M 218.389606 57.454724 
L 291.531969 57.454724 
L 291.531969 82.311024 
L 218.389606 82.311024 
z
" clip-path="url(#pb38b4e8037)" style="fill: #c2d8e3; stroke: #ffffff; stroke-linejoin: miter"/>
   </g>
   <g id="patch_10">
    <path d="M 291.531969 57.454724 
L 364.674331 57.454724 
L 364.674331 82.311024 
L 291.531969 82.311024 
z
" clip-path="url(#pb38b4e8037)" style="fill: #c2d8e3; stroke: #ffffff; stroke-linejoin: miter"/>
   </g>
   <g id="patch_11">
    <path d="M 364.674331 57.454724 
L 437.816693 57.454724 
L 437.816693 82.311024 
L 364.674331 82.311024 
z
" clip-path="url(#pb38b4e8037)" style="fill: #c2d8e3; stroke: #ffffff; stroke-linejoin: miter"/>
   </g>
   <g id="patch_12">
    <path d="M 437.816693 57.454724 
L 510.959055 57.454724 
L 510.959055 82.311024 
L 437.816693 82.311024 
z
" clip-path="url(#pb38b4e8037)" style="fill: #c2d8e3; stroke: #ffffff; stroke-linejoin: miter"/>
   </g>
   <g id="patch_13">
    <path d="M 145.247244 82.311024 
L 218.389606 82.311024 
L 218.389606 107.167323 
L 145.247244 107.167323 
z
" clip-path="url(#pb38b4e8037)" style="fill: #c2d8e3; stroke: #ffffff; stroke-linejoin: miter"/>
   </g>
   <g id="patch_14">
    <path d="M 218.389606 82.311024 
L 291.531969 82.311024 
L 291.531969 107.167323 
L 218.389606 107.167323 
z
" clip-path="url(#pb38b4e8037)" style="fill: #c2d8e3; stroke: #ffffff; stroke-linejoin: miter"/>
   </g>
   <g id="patch_15">
    <path d="M 291.531969 82.311024 
L 364.674331 82.311024 
L 364.674331 107.167323 
L 291.531969 107.167323 
z
" clip-path="url(#pb38b4e8037)" style="fill: #c2d8e3; stroke: #ffffff; stroke-linejoin: miter"/>
   </g>
   <g id="patch_16">
    <path d="M 364.674331 82.311024 
L 437.816693 82.311024 
L 437.816693 107.167323 
L 364.674331 107.167323 
z
" clip-path="url(#pb38b4e8037)" style="fill: #c2d8e3; stroke: #ffffff; stroke-linejoin: miter"/>
   </g>
   <g id="patch_17">
    <path d="M 437.816693 82.311024 
L 510.959055 82.311024 
L 510.959055 107.167323 
L 437.816693 107.167323 
z
" clip-path="url(#pb38b4e8037)" style="fill: #c2d8e3; stroke: #ffffff; stroke-linejoin: miter"/>
   </g>
   <g id="patch_18">
    <path d="M 145.247244 107.167323 
L 218.389606 107.167323 
L 218.389606 132.023622 
L 145.247244 132.023622 
z
" clip-path="url(#pb38b4e8037)" style="fill: #c2d8e3; stroke: #ffffff; stroke-linejoin: miter"/>
   </g>
   <g id="patch_19">
    <path d="M 218.389606 107.167323 
L 291.531969 107.167323 
L 291.531969 132.023622 
L 218.389606 132.023622 
z
" clip-path="url(#pb38b4e8037)" style="fill: #c2d8e3; stroke: #ffffff; stroke-linejoin: miter"/>
   </g>
   <g id="patch_20">
    <path d="M 291.531969 107.167323 
L 364.674331 107.167323 
L 364.674331 132.023622 
L 291.531969 132.023622 
z
" clip-path="url(#pb38b4e8037)" style="fill: #c2d8e3; stroke: #ffffff; stroke-linejoin: miter"/>
   </g>
   <g id="patch_21">
    <path d="M 364.674331 107.167323 
L 437.816693 107.167323 
L 437.816693 132.023622 
L 364.674331 132.023622 
z
" clip-path="url(#pb38b4e8037)" style="fill: #c2d8e3; stroke: #ffffff; stroke-linejoin: miter"/>
   </g>
   <g id="patch_22">
    <path d="M 437.816693 107.167323 
L 510.959055 107.167323 
L 510.959055 132.023622 
L 437.816693 132.023622 
z
" clip-path="url(#pb38b4e8037)" style="fill: #c2d8e3; stroke: #ffffff; stroke-linejoin: miter"/>
   </g>
   <g id="patch_23">
    <path d="M 145.247244 132.023622 
L 218.389606 132.023622 
L 218.389606 156.879921 
L 145.247244 156.879921 
z
" clip-path="url(#pb38b4e8037)" style="fill: #c2d8e3; stroke: #ffffff; stroke-linejoin: miter"/>
   </g>
   <g id="patch_24">
    <path d="M 218.389606 132.023622 
L 291.531969 132.023622 
L 291.531969 156.879921 
L 218.389606 156.879921 
z
" clip-path="url(#pb38b4e8037)" style="fill: #c2d8e3; stroke: #ffffff; stroke-linejoin: miter"/>
   </g>
   <g id="patch_25">
    <path d="M 291.531969 132.023622 
L 364.674331 132.023622 
L 364.674331 156.879921 
L 291.531969 156.879921 
z
" clip-path="url(#pb38b4e8037)" style="fill: #c2d8e3; stroke: #ffffff; stroke-linejoin: miter"/>
   </g>
   <g id="patch_26">
    <path d="M 364.674331 132.023622 
L 437.816693 132.023622 
L 437.816693 156.879921 
L 364.674331 156.879921 
z
" clip-path="url(#pb38b4e8037)" style="fill: #c2d8e3; stroke: #ffffff; stroke-linejoin: miter"/>
   </g>
   <g id="patch_27">
    <path d="M 437.816693 132.023622 
L 510.959055 132.023622 
L 510.959055 156.879921 
L 437.816693 156.879921 
z
" clip-path="url(#pb38b4e8037)" style="fill: #c2d8e3; stroke: #ffffff; stroke-linejoin: miter"/>
   </g>
   <g id="patch_28">
    <path d="M 145.247244 156.879921 
L 218.389606 156.879921 
L 218.389606 181.73622 
L 145.247244 181.73622 
z
" clip-path="url(#pb38b4e8037)" style="fill: #c2d8e3; stroke: #ffffff; stroke-linejoin: miter"/>
   </g>
   <g id="patch_29">
    <path d="M 218.389606 156.879921 
L 291.531969 156.879921 
L 291.531969 181.73622 
L 218.389606 181.73622 
z
" clip-path="url(#pb38b4e8037)" style="fill: #c2d8e3; stroke: #ffffff; stroke-linejoin: miter"/>
   </g>
   <g id="patch_30">
    <path d="M 291.531969 156.879921 
L 364.674331 156.879921 
L 364.674331 181.73622 
L 291.531969 181.73622 
z
" clip-path="url(#pb38b4e8037)" style="fill: #c2d8e3; stroke: #ffffff; stroke-linejoin: miter"/>
   </g>
   <g id="patch_31">
    <path d="M 364.674331 156.879921 
L 437.816693 156.879921 
L 437.816693 181.73622 
L 364.674331 181.73622 
z
" clip-path="url(#pb38b4e8037)" style="fill: #c2d8e3; stroke: #ffffff; stroke-linejoin: miter"/>
   </g>
   <g id="patch_32">
    <path d="M 437.816693 156.879921 
L 510.959055 156.879921 
L 510.959055 181.73622 
L 437.816693 181.73622 
z
" clip-path="url(#pb38b4e8037)" style="fill: #c2d8e3; stroke: #ffffff; stroke-linejoin: miter"/>
   </g>
   <g id="patch_33">
    <path d="M 145.247244 181.73622 
L 218.389606 181.73622 
L 218.389606 206.59252 
L 145.247244 206.59252 
z
" clip-path="url(#pb38b4e8037)" style="fill: #c2d8e3; stroke: #ffffff; stroke-linejoin: miter"/>
   </g>
   <g id="patch_34">
    <path d="M 218.389606 181.73622 
L 291.531969 181.73622 
L 291.531969 206.59252 
L 218.389606 206.59252 
z
" clip-path="url(#pb38b4e8037)" style="fill: #c2d8e3; stroke: #ffffff; stroke-linejoin: miter"/>
   </g>
   <g id="patch_35">
    <path d="M 291.531969 181.73622 
L 364.674331 181.73622 
L 364.674331 206.59252 
L 291.531969 206.59252 
z
" clip-path="url(#pb38b4e8037)" style="fill: #c2d8e3; stroke: #ffffff; stroke-linejoin: miter"/>
   </g>
   <g id="patch_36">
    <path d="M 364.674331 181.73622 
L 437.816693 181.73622 
L 437.816693 206.59252 
L 364.674331 206.59252 
z
" clip-path="url(#pb38b4e8037)" style="fill: #c2d8e3; stroke: #ffffff; stroke-linejoin: miter"/>
   </g>
   <g id="patch_37">
    <path d="M 437.816693 181.73622 
L 510.959055 181.73622 
L 510.959055 206.59252 
L 437.816693 206.59252 
z
" clip-path="url(#pb38b4e8037)" style="fill: #c2d8e3; stroke: #ffffff; stroke-linejoin: miter"/>
   </g>
   <g id="patch_38">
    <path d="M 145.247244 206.59252 
L 218.389606 206.59252 
L 218.389606 231.448819 
L 145.247244 231.448819 
z
" clip-path="url(#pb38b4e8037)" style="fill: #c2d8e3; stroke: #ffffff; stroke-linejoin: miter"/>
   </g>
   <g id="patch_39">
    <path d="M 218.389606 206.59252 
L 291.531969 206.59252 
L 291.531969 231.448819 
L 218.389606 231.448819 
z
" clip-path="url(#pb38b4e8037)" style="fill: #c2d8e3; stroke: #ffffff; stroke-linejoin: miter"/>
   </g>
   <g id="patch_40">
    <path d="M 291.531969 206.59252 
L 364.674331 206.59252 
L 364.674331 231.448819 
L 291.531969 231.448819 
z
" clip-path="url(#pb38b4e8037)" style="fill: #c2d8e3; stroke: #ffffff; stroke-linejoin: miter"/>
   </g>
   <g id="patch_41">
    <path d="M 364.674331 206.59252 
L 437.816693 206.59252 
L 437.816693 231.448819 
L 364.674331 231.448819 
z
" clip-path="url(#pb38b4e8037)" style="fill: #c2d8e3; stroke: #ffffff; stroke-linejoin: miter"/>
   </g>
   <g id="patch_42">
    <path d="M 437.816693 206.59252 
L 510.959055 206.59252 
L 510.959055 231.448819 
L 437.816693 231.448819 
z
" clip-path="url(#pb38b4e8037)" style="fill: #c2d8e3; stroke: #ffffff; stroke-linejoin: miter"/>
   </g>
   <g id="matplotlib.axis_1">
    <g id="xtick_1">
     <g id="line2d_1"/>
     <g id="text_1">
      <text style="font-size: 7px; font-family: 'Arial', 'DejaVu Sans', sans-serif; text-anchor: middle" x="181.818425" y="24.207175" transform="rotate(-0 181.818425 24.207175)">Demand-aware</text>
     </g>
    </g>
    <g id="xtick_2">
     <g id="line2d_2"/>
     <g id="text_2">
      <text style="font-size: 7px; font-family: 'Arial', 'DejaVu Sans', sans-serif; text-anchor: middle" x="254.960787" y="24.207175" transform="rotate(-0 254.960787 24.207175)">FHS3</text>
     </g>
    </g>
    <g id="xtick_3">
     <g id="line2d_3"/>
     <g id="text_3">
      <text style="font-size: 7px; font-family: 'Arial', 'DejaVu Sans', sans-serif; text-anchor: middle" x="328.10315" y="24.207175" transform="rotate(-0 328.10315 24.207175)">FHS5</text>
     </g>
    </g>
    <g id="xtick_4">
     <g id="line2d_4"/>
     <g id="text_4">
      <text style="font-size: 7px; font-family: 'Arial', 'DejaVu Sans', sans-serif; text-anchor: middle" x="401.245512" y="24.207175" transform="rotate(-0 401.245512 24.207175)">Global</text>
     </g>
    </g>
    <g id="xtick_5">
     <g id="line2d_5"/>
     <g id="text_5">
      <text style="font-size: 7px; font-family: 'Arial', 'DejaVu Sans', sans-serif; text-anchor: middle" x="474.387874" y="24.207175" transform="rotate(-0 474.387874 24.207175)">NCH</text>
     </g>
    </g>
   </g>
   <g id="matplotlib.axis_2">
    <g id="ytick_1">
     <g id="line2d_6"/>
     <g id="text_6">
      <text style="font-size: 7px; font-family: 'Arial', 'DejaVu Sans', sans-serif; text-anchor: end" x="138.247244" y="47.531809" transform="rotate(-0 138.247244 47.531809)">Failure risk · 30</text>
     </g>
    </g>
    <g id="ytick_2">
     <g id="line2d_7"/>
     <g id="text_7">
      <text style="font-size: 7px; font-family: 'Arial', 'DejaVu Sans', sans-serif; text-anchor: end" x="138.247244" y="72.388108" transform="rotate(-0 138.247244 72.388108)">Failure risk · 60</text>
     </g>
    </g>
    <g id="ytick_3">
     <g id="line2d_8"/>
     <g id="text_8">
      <text style="font-size: 7px; font-family: 'Arial', 'DejaVu Sans', sans-serif; text-anchor: end" x="138.247244" y="97.244408" transform="rotate(-0 138.247244 97.244408)">Failure risk · 120</text>
     </g>
    </g>
    <g id="ytick_4">
     <g id="line2d_9"/>
     <g id="text_9">
      <text style="font-size: 7px; font-family: 'Arial', 'DejaVu Sans', sans-serif; text-anchor: end" x="138.247244" y="122.100707" transform="rotate(-0 138.247244 122.100707)">Failure risk · 240</text>
     </g>
    </g>
    <g id="ytick_5">
     <g id="line2d_10"/>
     <g id="text_10">
      <text style="font-size: 7px; font-family: 'Arial', 'DejaVu Sans', sans-serif; text-anchor: end" x="138.247244" y="146.999662" transform="rotate(-0 138.247244 146.999662)">No-path time / H · 30</text>
     </g>
    </g>
    <g id="ytick_6">
     <g id="line2d_11"/>
     <g id="text_11">
      <text style="font-size: 7px; font-family: 'Arial', 'DejaVu Sans', sans-serif; text-anchor: end" x="138.247244" y="171.855961" transform="rotate(-0 138.247244 171.855961)">No-path time / H · 60</text>
     </g>
    </g>
    <g id="ytick_7">
     <g id="line2d_12"/>
     <g id="text_12">
      <text style="font-size: 7px; font-family: 'Arial', 'DejaVu Sans', sans-serif; text-anchor: end" x="138.247244" y="196.712261" transform="rotate(-0 138.247244 196.712261)">No-path time / H · 120</text>
     </g>
    </g>
    <g id="ytick_8">
     <g id="line2d_13"/>
     <g id="text_13">
      <text style="font-size: 7px; font-family: 'Arial', 'DejaVu Sans', sans-serif; text-anchor: end" x="138.247244" y="221.56856" transform="rotate(-0 138.247244 221.56856)">No-path time / H · 240</text>
     </g>
    </g>
   </g>
   <g id="line2d_14">
    <path d="M 145.247244 132.023622 
L 510.959055 132.023622 
" clip-path="url(#pb38b4e8037)" style="fill: none; stroke: #ffffff; stroke-width: 3; stroke-linecap: square"/>
   </g>
   <g id="text_14">
    <text style="font-size: 7px; font-family: 'Arial', 'DejaVu Sans', sans-serif; text-anchor: middle" x="181.818425" y="46.836184" transform="rotate(-0 181.818425 46.836184)">F:B   C:B</text>
   </g>
   <g id="text_15">
    <text style="font-size: 7px; font-family: 'Arial', 'DejaVu Sans', sans-serif; text-anchor: middle" x="254.960787" y="46.836184" transform="rotate(-0 254.960787 46.836184)">F:B   C:B</text>
   </g>
   <g id="text_16">
    <text style="font-size: 7px; font-family: 'Arial', 'DejaVu Sans', sans-serif; text-anchor: middle" x="328.10315" y="46.836184" transform="rotate(-0 328.10315 46.836184)">F:B   C:B</text>
   </g>
   <g id="text_17">
    <text style="font-size: 7px; font-family: 'Arial', 'DejaVu Sans', sans-serif; text-anchor: middle" x="401.245512" y="46.836184" transform="rotate(-0 401.245512 46.836184)">F:B   C:B</text>
   </g>
   <g id="text_18">
    <text style="font-size: 7px; font-family: 'Arial', 'DejaVu Sans', sans-serif; text-anchor: middle" x="474.387874" y="46.836184" transform="rotate(-0 474.387874 46.836184)">F:B   C:B</text>
   </g>
   <g id="text_19">
    <text style="font-size: 7px; font-family: 'Arial', 'DejaVu Sans', sans-serif; text-anchor: middle" x="181.818425" y="71.692483" transform="rotate(-0 181.818425 71.692483)">F:B   C:B</text>
   </g>
   <g id="text_20">
    <text style="font-size: 7px; font-family: 'Arial', 'DejaVu Sans', sans-serif; text-anchor: middle" x="254.960787" y="71.692483" transform="rotate(-0 254.960787 71.692483)">F:B   C:B</text>
   </g>
   <g id="text_21">
    <text style="font-size: 7px; font-family: 'Arial', 'DejaVu Sans', sans-serif; text-anchor: middle" x="328.10315" y="71.692483" transform="rotate(-0 328.10315 71.692483)">F:B   C:B</text>
   </g>
   <g id="text_22">
    <text style="font-size: 7px; font-family: 'Arial', 'DejaVu Sans', sans-serif; text-anchor: middle" x="401.245512" y="71.692483" transform="rotate(-0 401.245512 71.692483)">F:B   C:B</text>
   </g>
   <g id="text_23">
    <text style="font-size: 7px; font-family: 'Arial', 'DejaVu Sans', sans-serif; text-anchor: middle" x="474.387874" y="71.692483" transform="rotate(-0 474.387874 71.692483)">F:B   C:B</text>
   </g>
   <g id="text_24">
    <text style="font-size: 7px; font-family: 'Arial', 'DejaVu Sans', sans-serif; text-anchor: middle" x="181.818425" y="96.548783" transform="rotate(-0 181.818425 96.548783)">F:B   C:B</text>
   </g>
   <g id="text_25">
    <text style="font-size: 7px; font-family: 'Arial', 'DejaVu Sans', sans-serif; text-anchor: middle" x="254.960787" y="96.548783" transform="rotate(-0 254.960787 96.548783)">F:B   C:B</text>
   </g>
   <g id="text_26">
    <text style="font-size: 7px; font-family: 'Arial', 'DejaVu Sans', sans-serif; text-anchor: middle" x="328.10315" y="96.548783" transform="rotate(-0 328.10315 96.548783)">F:B   C:B</text>
   </g>
   <g id="text_27">
    <text style="font-size: 7px; font-family: 'Arial', 'DejaVu Sans', sans-serif; text-anchor: middle" x="401.245512" y="96.548783" transform="rotate(-0 401.245512 96.548783)">F:B   C:B</text>
   </g>
   <g id="text_28">
    <text style="font-size: 7px; font-family: 'Arial', 'DejaVu Sans', sans-serif; text-anchor: middle" x="474.387874" y="96.548783" transform="rotate(-0 474.387874 96.548783)">F:B   C:B</text>
   </g>
   <g id="text_29">
    <text style="font-size: 7px; font-family: 'Arial', 'DejaVu Sans', sans-serif; text-anchor: middle" x="181.818425" y="121.405082" transform="rotate(-0 181.818425 121.405082)">F:B   C:B</text>
   </g>
   <g id="text_30">
    <text style="font-size: 7px; font-family: 'Arial', 'DejaVu Sans', sans-serif; text-anchor: middle" x="254.960787" y="121.405082" transform="rotate(-0 254.960787 121.405082)">F:B   C:B</text>
   </g>
   <g id="text_31">
    <text style="font-size: 7px; font-family: 'Arial', 'DejaVu Sans', sans-serif; text-anchor: middle" x="328.10315" y="121.405082" transform="rotate(-0 328.10315 121.405082)">F:B   C:B</text>
   </g>
   <g id="text_32">
    <text style="font-size: 7px; font-family: 'Arial', 'DejaVu Sans', sans-serif; text-anchor: middle" x="401.245512" y="121.405082" transform="rotate(-0 401.245512 121.405082)">F:B   C:B</text>
   </g>
   <g id="text_33">
    <text style="font-size: 7px; font-family: 'Arial', 'DejaVu Sans', sans-serif; text-anchor: middle" x="474.387874" y="121.405082" transform="rotate(-0 474.387874 121.405082)">F:B   C:B</text>
   </g>
   <g id="text_34">
    <text style="font-size: 7px; font-family: 'Arial', 'DejaVu Sans', sans-serif; text-anchor: middle" x="181.818425" y="146.261381" transform="rotate(-0 181.818425 146.261381)">F:B   C:B</text>
   </g>
   <g id="text_35">
    <text style="font-size: 7px; font-family: 'Arial', 'DejaVu Sans', sans-serif; text-anchor: middle" x="254.960787" y="146.261381" transform="rotate(-0 254.960787 146.261381)">F:B   C:B</text>
   </g>
   <g id="text_36">
    <text style="font-size: 7px; font-family: 'Arial', 'DejaVu Sans', sans-serif; text-anchor: middle" x="328.10315" y="146.261381" transform="rotate(-0 328.10315 146.261381)">F:B   C:B</text>
   </g>
   <g id="text_37">
    <text style="font-size: 7px; font-family: 'Arial', 'DejaVu Sans', sans-serif; text-anchor: middle" x="401.245512" y="146.261381" transform="rotate(-0 401.245512 146.261381)">F:B   C:B</text>
   </g>
   <g id="text_38">
    <text style="font-size: 7px; font-family: 'Arial', 'DejaVu Sans', sans-serif; text-anchor: middle" x="474.387874" y="146.261381" transform="rotate(-0 474.387874 146.261381)">F:B   C:B</text>
   </g>
   <g id="text_39">
    <text style="font-size: 7px; font-family: 'Arial', 'DejaVu Sans', sans-serif; text-anchor: middle" x="181.818425" y="171.11768" transform="rotate(-0 181.818425 171.11768)">F:B   C:B</text>
   </g>
   <g id="text_40">
    <text style="font-size: 7px; font-family: 'Arial', 'DejaVu Sans', sans-serif; text-anchor: middle" x="254.960787" y="171.11768" transform="rotate(-0 254.960787 171.11768)">F:B   C:B</text>
   </g>
   <g id="text_41">
    <text style="font-size: 7px; font-family: 'Arial', 'DejaVu Sans', sans-serif; text-anchor: middle" x="328.10315" y="171.11768" transform="rotate(-0 328.10315 171.11768)">F:B   C:B</text>
   </g>
   <g id="text_42">
    <text style="font-size: 7px; font-family: 'Arial', 'DejaVu Sans', sans-serif; text-anchor: middle" x="401.245512" y="171.11768" transform="rotate(-0 401.245512 171.11768)">F:B   C:B</text>
   </g>
   <g id="text_43">
    <text style="font-size: 7px; font-family: 'Arial', 'DejaVu Sans', sans-serif; text-anchor: middle" x="474.387874" y="171.11768" transform="rotate(-0 474.387874 171.11768)">F:B   C:B</text>
   </g>
   <g id="text_44">
    <text style="font-size: 7px; font-family: 'Arial', 'DejaVu Sans', sans-serif; text-anchor: middle" x="181.818425" y="195.973979" transform="rotate(-0 181.818425 195.973979)">F:B   C:B</text>
   </g>
   <g id="text_45">
    <text style="font-size: 7px; font-family: 'Arial', 'DejaVu Sans', sans-serif; text-anchor: middle" x="254.960787" y="195.973979" transform="rotate(-0 254.960787 195.973979)">F:B   C:B</text>
   </g>
   <g id="text_46">
    <text style="font-size: 7px; font-family: 'Arial', 'DejaVu Sans', sans-serif; text-anchor: middle" x="328.10315" y="195.973979" transform="rotate(-0 328.10315 195.973979)">F:B   C:B</text>
   </g>
   <g id="text_47">
    <text style="font-size: 7px; font-family: 'Arial', 'DejaVu Sans', sans-serif; text-anchor: middle" x="401.245512" y="195.973979" transform="rotate(-0 401.245512 195.973979)">F:B   C:B</text>
   </g>
   <g id="text_48">
    <text style="font-size: 7px; font-family: 'Arial', 'DejaVu Sans', sans-serif; text-anchor: middle" x="474.387874" y="195.973979" transform="rotate(-0 474.387874 195.973979)">F:B   C:B</text>
   </g>
   <g id="text_49">
    <text style="font-size: 7px; font-family: 'Arial', 'DejaVu Sans', sans-serif; text-anchor: middle" x="181.818425" y="220.830279" transform="rotate(-0 181.818425 220.830279)">F:B   C:B</text>
   </g>
   <g id="text_50">
    <text style="font-size: 7px; font-family: 'Arial', 'DejaVu Sans', sans-serif; text-anchor: middle" x="254.960787" y="220.830279" transform="rotate(-0 254.960787 220.830279)">F:B   C:B</text>
   </g>
   <g id="text_51">
    <text style="font-size: 7px; font-family: 'Arial', 'DejaVu Sans', sans-serif; text-anchor: middle" x="328.10315" y="220.830279" transform="rotate(-0 328.10315 220.830279)">F:B   C:B</text>
   </g>
   <g id="text_52">
    <text style="font-size: 7px; font-family: 'Arial', 'DejaVu Sans', sans-serif; text-anchor: middle" x="401.245512" y="220.830279" transform="rotate(-0 401.245512 220.830279)">F:B   C:B</text>
   </g>
   <g id="text_53">
    <text style="font-size: 7px; font-family: 'Arial', 'DejaVu Sans', sans-serif; text-anchor: middle" x="474.387874" y="220.830279" transform="rotate(-0 474.387874 220.830279)">F:B   C:B</text>
   </g>
  </g>
  <g id="text_54">
   <text style="font-size: 7px; font-family: 'Arial', 'DejaVu Sans', sans-serif; text-anchor: middle" x="259.370079" y="286.866142" transform="rotate(-0 259.370079 286.866142)">F / C: formal / confirmation. Interval direction: B beneficial; H harmful; I inconclusive.</text>
  </g>
  <g id="text_55">
   <text style="font-size: 7px; font-family: 'Arial', 'DejaVu Sans', sans-serif; text-anchor: middle" x="259.370079" y="300.55748" transform="rotate(-0 259.370079 300.55748)">Hatched phase half-cell: secondary gate closed. Unhatched secondary: gate open.</text>
  </g>
  <g id="text_56">
   <text style="font-size: 7px; font-family: 'Arial', 'DejaVu Sans', sans-serif; text-anchor: middle" x="259.370079" y="313.59685" transform="rotate(-0 259.370079 313.59685)">Global gates are not applicable. Column and row order follow the complete registered registry.</text>
  </g>
  <g id="legend_1">
   <g id="patch_43">
    <path d="M 182.771815 257.699662 
L 196.771815 257.699662 
L 196.771815 252.799662 
L 182.771815 252.799662 
z
" style="fill: #c2d8e3; stroke: #aaaaaa; stroke-linejoin: miter"/>
   </g>
   <g id="text_57">
    <text style="font-size: 7px; font-family: 'Arial', 'DejaVu Sans', sans-serif; text-anchor: start" x="202.371815" y="257.699662" transform="rotate(-0 202.371815 257.699662)">Independently confirmed</text>
   </g>
   <g id="patch_44">
    <path d="M 182.771815 267.683412 
L 196.771815 267.683412 
L 196.771815 262.783412 
L 182.771815 262.783412 
z
" style="fill: #ead6b5; stroke: #aaaaaa; stroke-linejoin: miter"/>
   </g>
   <g id="text_58">
    <text style="font-size: 7px; font-family: 'Arial', 'DejaVu Sans', sans-serif; text-anchor: start" x="202.371815" y="267.683412" transform="rotate(-0 202.371815 267.683412)">Formal only</text>
   </g>
   <g id="patch_45">
    <path d="M 293.027283 257.699662 
L 307.027283 257.699662 
L 307.027283 252.799662 
L 293.027283 252.799662 
z
" style="fill: #d6cbe2; stroke: #aaaaaa; stroke-linejoin: miter"/>
   </g>
   <g id="text_59">
    <text style="font-size: 7px; font-family: 'Arial', 'DejaVu Sans', sans-serif; text-anchor: start" x="312.627283" y="257.699662" transform="rotate(-0 312.627283 257.699662)">Confirmation only</text>
   </g>
   <g id="patch_46">
    <path d="M 293.027283 267.683412 
L 307.027283 267.683412 
L 307.027283 262.783412 
L 293.027283 262.783412 
z
" style="fill: #ededed; stroke: #aaaaaa; stroke-linejoin: miter"/>
   </g>
   <g id="text_60">
    <text style="font-size: 7px; font-family: 'Arial', 'DejaVu Sans', sans-serif; text-anchor: start" x="312.627283" y="267.683412" transform="rotate(-0 312.627283 267.683412)">Neither</text>
   </g>
  </g>
 </g>
 <defs>
  <clipPath id="pb38b4e8037">
   <rect x="145.247244" y="32.598425" width="365.711811" height="198.850394"/>
  </clipPath>
 </defs>
</svg>
